<svg width="0" height="0" class="hidden">
  <symbol xmlns="http://www.w3.org/2000/svg" viewBox="0 0 24 24" id="plus">
    <path d="M4 12H20M12 4V20" stroke-width="2" stroke-linecap="round" stroke-linejoin="round"></path>
  <symbol version="1.1" xmlns="http://www.w3.org/2000/svg" xmlns:xlink="http://www.w3.org/1999/xlink" viewBox="0 -0.5 21 21" id="home">
    <defs></defs>
    <g id="Page-1" stroke="none" stroke-width="1" fill-rule="evenodd">
      <g id="Dribbble-Light-Preview" transform="translate(-419.000000, -720.000000)" >
        <g id="icons" transform="translate(56.000000, 160.000000)">
          <path d="M379.79996,578 L376.649968,578 L376.649968,574 L370.349983,574 L370.349983,578 L367.19999,578 L367.19999,568.813 L373.489475,562.823 L379.79996,568.832 L379.79996,578 Z M381.899955,568.004 L381.899955,568 L381.899955,568 L373.502075,560 L363,569.992 L364.481546,571.406 L365.099995,570.813 L365.099995,580 L372.449978,580 L372.449978,576 L374.549973,576 L374.549973,580 L381.899955,580 L381.899955,579.997 L381.899955,570.832 L382.514204,571.416 L384.001,570.002 L381.899955,568.004 Z" id="home-[#1391]"></path>
        </g>
      </g>
    </g>
  </symbol>
    <symbol fill="none" xmlns="http://www.w3.org/2000/svg" viewBox="0 0 15 15" id="rooms">
    <path d="M13.5 5.5H1.5M13.5 5.5C14.0523 5.5 14.5 5.05228 14.5 4.5V2.5C14.5 1.94772 14.0523 1.5 13.5 1.5H1.5C0.947715 1.5 0.5 1.94772 0.5 2.5V4.5C0.5 5.05228 0.947716 5.5 1.5 5.5M13.5 5.5C14.0523 5.5 14.5 5.94772 14.5 6.5V8.5C14.5 9.05228 14.0523 9.5 13.5 9.5M1.5 5.5C0.947716 5.5 0.5 5.94772 0.5 6.5V8.5C0.5 9.05228 0.947716 9.5 1.5 9.5M13.5 9.5H1.5M13.5 9.5C14.0523 9.5 14.5 9.94772 14.5 10.5V12.5C14.5 13.0523 14.0523 13.5 13.5 13.5H1.5C0.947716 13.5 0.5 13.0523 0.5 12.5V10.5C0.5 9.94772 0.947716 9.5 1.5 9.5M2 3.5H5M2 7.5H5M2 11.5H5" ></path>
  </symbol>
</svg>

<svg class="icon">
  <use xlink:href="#plus"></use>
</svg><svg class="icon">
  <use xlink:href="#rooms"></use>
</svg><svg class="icon">
  <use xlink:href="#home"></use>
</svg>