<svg width="0" height="0" class="hidden">
  <symbol xmlns="http://www.w3.org/2000/svg" viewBox="0 0 24 24" id="plus">
    <path d="M4 12H20M12 4V20" stroke-width="2" stroke-linecap="round" stroke-linejoin="round"></path>
  <symbol version="1.1" xmlns="http://www.w3.org/2000/svg" xmlns:xlink="http://www.w3.org/1999/xlink" viewBox="0 -0.5 21 21" id="home">
    <defs></defs>
    <g id="Page-1" stroke="none" stroke-width="1" fill-rule="evenodd">
      <g id="Dribbble-Light-Preview" transform="translate(-419.000000, -720.000000)" >
        <g id="icons" transform="translate(56.000000, 160.000000)">
          <path d="M379.79996,578 L376.649968,578 L376.649968,574 L370.349983,574 L370.349983,578 L367.19999,578 L367.19999,568.813 L373.489475,562.823 L379.79996,568.832 L379.79996,578 Z M381.899955,568.004 L381.899955,568 L381.899955,568 L373.502075,560 L363,569.992 L364.481546,571.406 L365.099995,570.813 L365.099995,580 L372.449978,580 L372.449978,576 L374.549973,576 L374.549973,580 L381.899955,580 L381.899955,579.997 L381.899955,570.832 L382.514204,571.416 L384.001,570.002 L381.899955,568.004 Z" id="home-[#1391]"></path>
        </g>
      </g>
    </g>
  </symbol>
    <symbol fill="none" xmlns="http://www.w3.org/2000/svg" viewBox="0 0 15 15" id="rooms">
    <path d="M13.5 5.5H1.5M13.5 5.5C14.0523 5.5 14.5 5.05228 14.5 4.5V2.5C14.5 1.94772 14.0523 1.5 13.5 1.5H1.5C0.947715 1.5 0.5 1.94772 0.5 2.5V4.5C0.5 5.05228 0.947716 5.5 1.5 5.5M13.5 5.5C14.0523 5.5 14.5 5.94772 14.5 6.5V8.5C14.5 9.05228 14.0523 9.5 13.5 9.5M1.5 5.5C0.947716 5.5 0.5 5.94772 0.5 6.5V8.5C0.5 9.05228 0.947716 9.5 1.5 9.5M13.5 9.5H1.5M13.5 9.5C14.0523 9.5 14.5 9.94772 14.5 10.5V12.5C14.5 13.0523 14.0523 13.5 13.5 13.5H1.5C0.947716 13.5 0.5 13.0523 0.5 12.5V10.5C0.5 9.94772 0.947716 9.5 1.5 9.5M2 3.5H5M2 7.5H5M2 11.5H5" ></path>
  </symbol>
    <symbol version="1.1" id="devices" xmlns="http://www.w3.org/2000/svg" xmlns:xlink="http://www.w3.org/1999/xlink" xml:space="preserve" viewBox="0 0 512 512">
    <g>
      <path d="M485.234,116.625H261.906l69.719-69.719c1.75-1.75,1.75-4.563,0-6.313l-17.422-17.438
		c-1.734-1.75-4.563-1.75-6.297,0l-89.688,89.688l-89.656-89.688c-1.75-1.75-4.563-1.75-6.313,0l-17.438,17.438
		c-1.75,1.75-1.75,4.563,0,6.313l69.75,69.719H26.766c-14.781,0-26.766,12-26.766,26.781v319.969
		c0,14.781,11.984,26.781,26.766,26.781h458.469c14.781,0,26.766-12,26.766-26.781V143.406
		C512,128.625,500.016,116.625,485.234,116.625z M383.594,421.188c0,8.531-6.906,15.438-15.422,15.438H66.844
		c-8.531,0-15.438-6.906-15.438-15.438V191.875c0-8.531,6.906-15.438,15.438-15.438h301.328c8.516,0,15.422,6.906,15.422,15.438
		V421.188z M473.188,333.813h-45.125v-45.125h45.125V333.813z M449.047,234.156c-13.906,0-25.172-11.281-25.172-25.188
		s11.266-25.188,25.172-25.188s25.172,11.281,25.172,25.188S462.953,234.156,449.047,234.156z"></path>
    </g>
  </symbol>
  <symbol version="1.1" id="settings" sodipodiDocname="settings2.svg" inkscapeVersion="1.2.2 (1:1.2.2+202212051550+b0a8486541)" xmlnsInkscape="http://www.inkscape.org/namespaces/inkscape" xmlnsSodipodi="http://sodipodi.sourceforge.net/DTD/sodipodi-0.dtd" xmlns="http://www.w3.org/2000/svg" xmlnsSvg="http://www.w3.org/2000/svg" viewBox="0 0 600 600">
    <defs id="defs9728"></defs>
    <sodipodi:namedview id="namedview9726" pagecolor="#ffffff" bordercolor="#666666" borderopacity="1.0" inkscapeShowpageshadow="2" inkscapePageopacity="0.0" inkscapePagecheckerboard="0" inkscapeDeskcolor="#d1d1d1" showgrid="true" inkscapeZoom="0.59480855" inkscapeCx="44.55215" inkscapeCy="332.03961" inkscapeWindowWidth="1920" inkscapeWindowHeight="1009" inkscapeWindowX="0" inkscapeWindowY="1080" inkscapeWindowMaximized="1" inkscapeCurrentLayer="svg9724" showguides="true">
      <inkscape:grid type="xygrid" id="grid9972" originx="0" originy="0"></inkscape:grid>
      <sodipodi:guide position="40,400" orientation="0,-1" id="guide292" inkscapeLocked="false"></sodipodi:guide>
      <sodipodi:guide position="90,200" orientation="0,-1" id="guide294" inkscapeLocked="false"></sodipodi:guide>
      <sodipodi:guide position="230,500" orientation="0,-1" id="guide296" inkscapeLocked="false"></sodipodi:guide>
      <sodipodi:guide position="210,300" orientation="0,-1" id="guide298" inkscapeLocked="false"></sodipodi:guide>
      <sodipodi:guide position="230,100" orientation="0,-1" id="guide300" inkscapeLocked="false"></sodipodi:guide>
    </sodipodi:namedview>
    <g id="g10449" transform="matrix(0.95173205,0,0,0.95115787,13.901174,12.168794)">
      <path id="path356" d="M 447.70881 -12.781343 A 42.041451 42.041451 0 0 0 405.66786 29.260344 L 405.66786 50.301721 L 27.434765 50.301721 A 42.041302 42.041302 0 0 0 -14.606185 92.341354 A 42.041302 42.041302 0 0 0 27.434765 134.38304 L 405.66786 134.38304 L 405.66786 155.44906 A 42.041451 42.041451 0 0 0 447.70881 197.49075 A 42.041451 42.041451 0 0 0 489.74976 155.44906 L 489.74976 134.38304 L 573.78036 134.38304 A 42.041302 42.041302 0 0 0 615.82336 92.341354 A 42.041302 42.041302 0 0 0 573.78036 50.301721 L 489.74976 50.301721 L 489.74976 29.260344 A 42.041451 42.041451 0 0 0 447.70881 -12.781343 z M 143.0012 197.48869 A 42.041451 42.041451 0 0 0 100.9582 239.53038 L 100.9582 260.5697 L 27.447078 260.5697 A 42.041302 42.041302 0 0 0 -14.593872 302.61139 A 42.041302 42.041302 0 0 0 27.447078 344.65308 L 100.9582 344.65308 L 100.9582 365.7191 A 42.041451 42.041451 0 0 0 143.0012 407.76078 A 42.041451 42.041451 0 0 0 185.04215 365.7191 L 185.04215 344.65308 L 573.79472 344.65308 A 42.041302 42.041302 0 0 0 615.83567 302.61139 A 42.041302 42.041302 0 0 0 573.79472 260.5697 L 185.04215 260.5697 L 185.04215 239.53038 A 42.041451 42.041451 0 0 0 143.0012 197.48869 z M 279.59427 407.76078 A 42.041451 42.041451 0 0 0 237.55332 449.80042 L 237.55332 470.83974 L 27.447078 470.83974 A 42.041302 42.041302 0 0 0 -14.593872 512.88143 A 42.041302 42.041302 0 0 0 27.447078 554.92106 L 237.55332 554.92106 L 237.55332 575.98913 A 42.041451 42.041451 0 0 0 279.59427 618.02877 A 42.041451 42.041451 0 0 0 321.63522 575.98913 L 321.63522 554.92106 L 573.79472 554.92106 A 42.041302 42.041302 0 0 0 615.83567 512.88143 A 42.041302 42.041302 0 0 0 573.79472 470.83974 L 321.63522 470.83974 L 321.63522 449.80042 A 42.041451 42.041451 0 0 0 279.59427 407.76078 z "></path>
    </g>
  </symbol>
   <symbol xmlns="http://www.w3.org/2000/svg" viewBox="0 0 140 166" id="lamp-light">
    <path opacity="0.03" d="M133.1 159.15C133.1 161.672 105.12 163.714 70.6101 163.714C36.1001 163.714 8.12012 161.672 8.12012 159.15C8.12012 156.628 36.1001 154.586 70.6101 154.586C105.12 154.586 133.1 156.628 133.1 159.15Z" ></path>
    <path opacity="0.05" d="M131.24 159.15C131.24 161.565 104.1 163.521 70.62 163.521C37.14 163.521 10 161.565 10 159.15C10 156.736 37.14 154.78 70.62 154.78C104.1 154.78 131.24 156.736 131.24 159.15Z" ></path>
    <path opacity="0.08" d="M129.379 159.15C129.379 161.457 103.069 163.327 70.6194 163.327C38.1694 163.327 11.8594 161.457 11.8594 159.15C11.8594 156.843 38.1694 154.973 70.6194 154.973C103.069 154.973 129.379 156.843 129.379 159.15Z"></path>
    <path opacity="0.11" d="M127.52 159.15C127.52 161.35 102.04 163.127 70.6197 163.127C39.1997 163.127 13.7197 161.343 13.7197 159.15C13.7197 156.958 39.1997 155.174 70.6197 155.174C102.04 155.174 127.52 156.958 127.52 159.15Z"></path>
    <path opacity="0.13" d="M125.649 159.15C125.649 161.242 101.009 162.933 70.6093 162.933C40.2093 162.933 15.5693 161.242 15.5693 159.15C15.5693 157.058 40.2093 155.367 70.6093 155.367C101.009 155.367 125.649 157.058 125.649 159.15Z"></path>
    <path opacity="0.16" d="M70.6097 162.74C99.9802 162.74 123.79 161.133 123.79 159.15C123.79 157.168 99.9802 155.561 70.6097 155.561C41.2392 155.561 17.4297 157.168 17.4297 159.15C17.4297 161.133 41.2392 162.74 70.6097 162.74Z"></path>
    <path opacity="0.18" d="M70.61 162.539C98.9533 162.539 121.93 161.022 121.93 159.15C121.93 157.279 98.9533 155.761 70.61 155.761C42.2668 155.761 19.29 157.279 19.29 159.15C19.29 161.022 42.2668 162.539 70.61 162.539Z"></path>
    <path opacity="0.21" d="M70.6102 162.346C97.9206 162.346 120.06 160.915 120.06 159.15C120.06 157.385 97.9206 155.955 70.6102 155.955C43.2997 155.955 21.1602 157.385 21.1602 159.15C21.1602 160.915 43.2997 162.346 70.6102 162.346Z"></path>
    <path opacity="0.24" d="M70.6095 162.152C96.8928 162.152 118.2 160.808 118.2 159.15C118.2 157.492 96.8928 156.148 70.6095 156.148C44.3263 156.148 23.0195 157.492 23.0195 159.15C23.0195 160.808 44.3263 162.152 70.6095 162.152Z"></path>
    <path opacity="0.26" d="M70.6099 161.952C95.8659 161.952 116.34 160.698 116.34 159.151C116.34 157.603 95.8659 156.349 70.6099 156.349C45.3539 156.349 24.8799 157.603 24.8799 159.151C24.8799 160.698 45.3539 161.952 70.6099 161.952Z"></path>
    <path opacity="0.29" d="M70.6102 161.758C94.839 161.758 114.48 160.591 114.48 159.15C114.48 157.71 94.839 156.542 70.6102 156.542C46.3815 156.542 26.7402 157.71 26.7402 159.15C26.7402 160.591 46.3815 161.758 70.6102 161.758Z"></path>
    <path opacity="0.32" d="M70.6096 161.565C93.8111 161.565 112.62 160.484 112.62 159.15C112.62 157.817 93.8111 156.736 70.6096 156.736C47.4081 156.736 28.5996 157.817 28.5996 159.15C28.5996 160.484 47.4081 161.565 70.6096 161.565Z"></path>
    <path opacity="0.34" d="M70.61 161.364C92.7842 161.364 110.76 160.373 110.76 159.15C110.76 157.928 92.7842 156.937 70.61 156.937C48.4357 156.937 30.46 157.928 30.46 159.15C30.46 160.373 48.4357 161.364 70.61 161.364Z"></path>
    <path opacity="0.37" d="M70.6101 161.171C91.7515 161.171 108.89 160.266 108.89 159.15C108.89 158.034 91.7515 157.13 70.6101 157.13C49.4686 157.13 32.3301 158.034 32.3301 159.15C32.3301 160.266 49.4686 161.171 70.6101 161.171Z"></path>
    <path opacity="0.39" d="M70.6095 160.977C90.7237 160.977 107.029 160.159 107.029 159.15C107.029 158.141 90.7237 157.323 70.6095 157.323C50.4952 157.323 34.1895 158.141 34.1895 159.15C34.1895 160.159 50.4952 160.977 70.6095 160.977Z"></path>
    <path opacity="0.42" d="M70.6098 160.777C89.6968 160.777 105.17 160.049 105.17 159.15C105.17 158.252 89.6968 157.524 70.6098 157.524C51.5228 157.524 36.0498 158.252 36.0498 159.15C36.0498 160.049 51.5228 160.777 70.6098 160.777Z"></path>
    <path opacity="0.45" d="M70.6102 160.583C88.6699 160.583 103.31 159.942 103.31 159.15C103.31 158.359 88.6699 157.717 70.6102 157.717C52.5504 157.717 37.9102 158.359 37.9102 159.15C37.9102 159.942 52.5504 160.583 70.6102 160.583Z"></path>
    <path opacity="0.47" d="M70.6095 160.39C87.642 160.39 101.45 159.835 101.45 159.15C101.45 158.466 87.642 157.911 70.6095 157.911C53.5771 157.911 39.7695 158.466 39.7695 159.15C39.7695 159.835 53.5771 160.39 70.6095 160.39Z"></path>
    <path opacity="0.5" d="M70.6096 160.189C86.6093 160.189 99.5797 159.724 99.5797 159.15C99.5797 158.576 86.6093 158.111 70.6096 158.111C54.61 158.111 41.6396 158.576 41.6396 159.15C41.6396 159.724 54.61 160.189 70.6096 160.189Z"></path>
    <path opacity="0.05" d="M22.2804 49.8598C33.9904 22.383 51.0404 0.0146484 71.0504 0.0146484C91.0604 0.0146484 107.49 23.4075 118.81 51.4145C124.68 65.9088 129.2 82.703 132.18 98.3006C134.96 112.902 136.4 126.444 136.36 135.908C136.33 155.54 103.15 164.575 69.9504 163.93C36.7804 163.292 3.60036 153.132 3.59036 133.05C3.54036 117.696 7.11036 95.9649 13.3504 75.18C15.9104 66.6325 18.8204 57.9774 22.2704 49.8598H22.2804Z"></path>
    <path opacity="0.09" d="M24.8004 47.8893C35.7304 21.4586 52.0404 0.0288086 70.9804 0.0288086C89.9204 0.0288086 105.56 23.4002 116.25 50.8197C121.79 64.9916 126.06 82.3804 128.86 98.5154C131.47 113.705 132.78 127.783 132.73 136.718C132.62 155.26 101.33 163.048 69.9104 161.859C38.5804 160.67 7.21044 150.804 7.18044 131.366C7.09044 115.474 10.5104 93.4571 16.3104 73.3313C18.7704 64.7766 21.4404 56.007 24.7904 47.9036L24.8004 47.8893Z"></path>
    <path opacity="0.14" d="M27.3299 45.9258C37.4899 20.5268 53.0499 0.0356445 70.9099 0.0356445C88.7699 0.0356445 103.63 23.3855 113.69 50.2247C118.9 64.0741 122.92 82.0577 125.54 98.73C127.98 114.514 129.18 129.123 129.1 137.527C128.94 154.98 99.5199 161.536 69.8799 159.788C40.4099 158.054 10.8899 148.468 10.7899 129.675C10.6999 113.246 13.9199 90.9348 19.2899 71.4682C21.6499 62.9135 24.0899 54.0292 27.3299 45.9258Z"></path>
    <path opacity="0.19" d="M29.8504 43.9559C39.2704 19.61 54.0504 0.050293 70.8504 0.050293C87.6504 0.050293 101.71 23.3787 111.14 49.6303C116.03 63.1645 119.79 81.7355 122.23 98.9381C124.5 115.317 125.58 130.449 125.47 138.337C125.25 154.694 97.7304 160.018 69.8404 157.711C42.2404 155.432 14.5104 146.132 14.3804 127.977C14.2604 111.011 17.3004 88.4059 22.2504 69.5985C24.5004 61.0366 26.7204 52.052 29.8504 43.9487V43.9559Z"></path>
    <path opacity="0.24" d="M32.3795 41.9854C41.0595 18.6928 55.0495 0.0644531 70.7795 0.0644531C86.5095 0.0644531 99.7795 23.3785 108.58 49.0355C113.14 62.2473 116.64 81.413 118.91 99.1529C121.01 116.119 121.97 131.788 121.84 139.146C121.57 154.415 95.9695 158.506 69.7995 155.64C44.0795 152.824 18.1295 143.804 17.9695 126.293C17.8195 108.797 20.6695 85.8909 25.2095 67.7426C27.3495 59.1736 29.3495 50.0815 32.3695 41.9854H32.3795Z"></path>
    <path opacity="0.28" d="M34.9001 40.0221C42.8801 17.7827 56.0501 0.0786133 70.7101 0.0786133C85.3701 0.0786133 97.8501 23.3712 106.02 48.4478C110.26 61.3372 113.5 81.0904 115.59 99.3748C117.52 116.936 118.36 133.128 118.21 139.963C117.89 154.142 94.2301 157.008 69.7601 153.576C45.9401 150.23 21.7501 141.482 21.5701 124.609C21.3801 106.575 24.0401 83.3688 28.1901 65.894C30.2201 57.3178 32.0001 48.1182 34.9001 40.0221Z"></path>
    <path opacity="0.33" d="M37.4297 38.0519C44.7097 16.8801 57.0497 0.0859375 70.6397 0.0859375C84.2297 0.0859375 95.9197 23.357 103.47 47.8461C107.38 60.4203 110.37 80.761 112.28 99.5828C114.05 117.738 114.77 134.461 114.59 140.766C114.21 153.849 92.5397 155.511 69.7397 151.499C47.8497 147.644 25.3797 139.146 25.1797 122.918C24.9597 104.347 27.4097 80.8398 31.1697 64.0313C33.0897 55.4479 34.6597 46.1481 37.4397 38.0519H37.4297Z"></path>
    <path opacity="0.38" d="M39.9505 36.0886C46.5605 15.9772 58.0505 0.100098 70.5705 0.100098C83.0905 0.100098 93.9905 23.3497 100.91 47.2513C104.49 59.503 107.23 80.4384 108.96 99.7975C110.56 118.541 111.16 135.793 110.95 141.582C110.52 153.576 90.8605 154.042 69.6905 149.435C49.7405 145.093 28.9805 136.818 28.7705 121.234C28.5105 102.126 30.7505 78.3176 34.1305 62.1755C35.9305 53.5778 37.3005 44.1848 39.9605 36.0886H39.9505Z"></path>
    <path opacity="0.43" d="M42.4797 34.1186C48.4397 15.0819 59.0597 0.114746 70.4997 0.114746C81.9397 0.114746 92.0597 23.3428 98.3497 46.6641C101.61 58.5934 104.09 80.1235 105.64 100.013C107.07 119.35 107.55 137.133 107.32 142.392C106.83 153.297 89.2197 152.595 69.6497 147.357C51.6697 142.55 32.5897 134.482 32.3597 119.544C32.0597 99.8982 34.0697 75.7888 37.0897 60.3201C38.7697 51.7152 39.9397 42.222 42.4797 34.1258V34.1186Z"></path>
    <path opacity="0.47" d="M44.9997 32.1482C50.3297 14.1861 60.0597 0.128906 70.4397 0.128906C80.8197 0.128906 90.1397 23.3355 95.7997 46.0693C98.7297 57.6761 100.96 79.8009 102.32 100.228C103.58 120.16 103.95 138.466 103.69 143.202C103.15 153.01 87.6197 151.169 69.6097 145.287C53.6097 140.056 36.1997 132.154 35.9597 117.853C35.6197 97.6698 37.3897 73.2523 40.0597 58.4571C41.6097 49.8379 42.5997 40.2515 44.9997 32.1482Z"></path>
    <path opacity="0.52" d="M47.53 30.1852C52.24 13.2979 61.06 0.13623 70.37 0.13623C79.68 0.13623 88.21 23.3285 93.24 45.4676C95.85 56.7592 97.82 79.4715 99 100.436C100.09 120.955 100.34 139.799 100.05 144.004C99.46 152.724 86.04 149.793 69.57 143.209C55.57 137.613 39.81 129.818 39.55 116.162C39.17 95.4417 40.7 70.7233 43.02 56.5944C44.44 47.9681 45.26 38.2885 47.52 30.178L47.53 30.1852Z" ></path>
    <path opacity="0.57" d="M50.0496 28.2147C54.1796 12.4164 62.0596 0.150391 70.2996 0.150391C79.0096 0.150391 86.2796 23.3212 90.6796 44.8799C92.9596 55.8491 94.6796 79.1489 95.6796 100.657C96.5996 121.772 96.7296 141.138 96.4196 144.828C95.7696 152.451 84.4796 148.489 69.5296 141.153C57.5096 135.249 43.4096 127.504 43.1496 114.485C42.7196 93.2276 43.9996 68.2011 45.9996 54.7458C47.2796 46.1051 47.9396 36.3324 50.0596 28.2219L50.0496 28.2147Z" ></path>
    <path opacity="0.62" d="M52.58 26.2514C56.13 11.535 63.06 0.164551 70.23 0.164551C77.91 0.164551 84.35 23.3138 88.12 44.2851C90.08 54.9319 91.54 78.8263 92.36 100.872C93.11 122.581 93.13 142.471 92.79 145.638C92.09 152.165 82.89 147.25 69.49 139.082C59.42 132.942 47.02 125.175 46.74 112.802C46.26 91.0135 47.28 65.6718 48.96 52.8971C50.1 44.2421 50.62 34.3834 52.58 26.2586V26.2514Z" ></path>
    <path opacity="0.66" d="M55.1102 24.2814C58.1102 10.6541 64.0602 0.179199 70.1602 0.179199C76.8102 0.179199 82.4202 23.307 85.5602 43.6907C87.1902 54.0223 88.4002 78.5042 89.0402 101.08C89.6302 123.377 89.5202 143.797 89.1502 146.44C88.4002 151.871 81.2202 146.089 69.4402 136.997C61.2602 130.685 50.6102 122.825 50.3302 111.097C49.8002 88.7713 50.5501 63.1215 51.9201 51.0202C52.9001 42.3581 53.3001 32.4062 55.1001 24.2742L55.1102 24.2814Z" ></path>
    <path opacity="0.71" d="M57.6299 22.3109C60.0999 9.77262 65.0599 0.193359 70.0899 0.193359C75.7099 0.193359 80.4899 23.2997 82.9999 43.103C84.2999 53.1122 85.2499 78.1888 85.7199 101.302C86.1399 124.194 85.9099 145.129 85.5199 147.257C84.7199 151.592 79.4099 145.014 69.4099 134.934C63.0199 128.5 54.2199 120.504 53.9299 109.42C53.3399 86.5572 53.8199 60.5922 54.8899 49.1716C55.7099 40.4951 56.0199 30.4572 57.6199 22.3181L57.6299 22.3109Z" ></path>
    <path opacity="0.76" d="M60.1599 20.3479C62.1199 8.89868 66.0699 0.200684 70.0299 0.200684C74.6199 0.200684 78.5699 23.2855 80.4499 42.5013C81.4299 52.1881 82.1199 77.8594 82.4099 101.51C82.6599 124.996 82.3199 146.447 81.8999 148.067C81.0499 151.298 77.3899 143.983 69.3799 132.863C64.6699 126.322 57.8299 118.175 57.5399 107.729C56.8899 84.3291 57.0799 58.056 57.8699 47.3161C58.5099 38.6252 58.7599 28.5086 60.1599 20.3479Z" ></path>
    <path opacity="0.81" d="M62.68 18.3775C64.16 8.01725 67.07 0.214844 69.96 0.214844C73.52 0.214844 76.64 23.2853 77.9 41.9065C78.55 51.2708 78.99 77.5368 79.1 101.725C79.18 125.806 78.73 147.766 78.27 148.876C77.4 150.99 75.1 142.944 69.34 130.792C66.18 124.115 61.4 115.847 61.13 106.038C60.35 82.1007 60.32 55.5267 60.83 45.453C61.27 36.7479 61.51 26.5453 62.68 18.3775Z" ></path>
    <path opacity="0.85" d="M65.2101 16.4147C66.2301 7.14347 68.0701 0.229492 69.8901 0.229492C72.4201 0.229492 74.7101 23.2785 75.3401 41.3193C75.6701 50.3684 75.8501 77.2218 75.7701 101.947C75.6801 126.616 75.3401 149.17 74.6301 149.693C74.1601 150.782 72.5501 141.834 69.2901 128.722C67.5801 121.837 65.0001 113.518 64.7201 104.355C63.9001 79.88 63.5401 52.9978 63.8001 43.5977C64.0301 34.8782 64.3101 24.5968 65.2101 16.4147Z" ></path>
    <path opacity="0.9" d="M72.7795 40.7245C72.7795 49.4511 72.7095 76.8921 72.4495 102.155C72.1895 127.418 71.7495 150.496 70.9995 150.496C70.2495 150.496 69.1895 127.669 68.3195 102.664C67.4495 77.6587 66.7695 50.4685 66.7695 41.7347C66.7695 33.0009 67.1595 22.6335 67.7295 14.4442C68.2995 6.25487 69.0695 0.243652 69.8195 0.243652C71.3195 0.243652 72.7795 23.2711 72.7795 40.7245Z" ></path>
    <defs>
      <linearGradient id="paint0_linear_350_65723" x1="69.9804" y1="21.2653" x2="69.9804" y2="151.678" gradientUnits="userSpaceOnUse">
        <stop stop-color="white"></stop>
        <stop offset="0.09" stop-color="#F3F3F3"></stop>
        <stop offset="0.24" stop-color="#D5D5D5"></stop>
        <stop offset="0.44" stop-color="#A4A4A4"></stop>
        <stop offset="0.69" stop-color="#606060"></stop>
        <stop offset="0.96" stop-color="#0B0B0B"></stop>
        <stop offset="1"></stop>
      </linearGradient>
      <linearGradient id="paint1_linear_350_65723" x1="69.9604" y1="20.1188" x2="69.9604" y2="148.948" gradientUnits="userSpaceOnUse">
        <stop stop-color="white"></stop>
        <stop offset="0.09" stop-color="#F4F4F4"></stop>
        <stop offset="0.23" stop-color="#DADADA"></stop>
        <stop offset="0.42" stop-color="#AEAEAE"></stop>
        <stop offset="0.64" stop-color="#717171"></stop>
        <stop offset="0.89" stop-color="#242424"></stop>
        <stop offset="1"></stop>
      </linearGradient>
      <linearGradient id="paint2_linear_350_65723" x1="69.9499" y1="19.0007" x2="69.9499" y2="146.297" gradientUnits="userSpaceOnUse">
        <stop stop-color="white"></stop>
        <stop offset="0.08" stop-color="#F6F6F6"></stop>
        <stop offset="0.22" stop-color="#DDDDDD"></stop>
        <stop offset="0.4" stop-color="#B5B5B5"></stop>
        <stop offset="0.6" stop-color="#7E7E7E"></stop>
        <stop offset="0.83" stop-color="#393939"></stop>
        <stop offset="1"></stop>
      </linearGradient>
      <linearGradient id="paint3_linear_350_65723" x1="69.9304" y1="17.9192" x2="69.9304" y2="143.739" gradientUnits="userSpaceOnUse">
        <stop stop-color="white"></stop>
        <stop offset="0.09" stop-color="#F6F6F6"></stop>
        <stop offset="0.22" stop-color="#E0E0E0"></stop>
        <stop offset="0.38" stop-color="#BCBCBC"></stop>
        <stop offset="0.57" stop-color="#898989"></stop>
        <stop offset="0.79" stop-color="#484848"></stop>
        <stop offset="1"></stop>
      </linearGradient>
      <linearGradient id="paint4_linear_350_65723" x1="69.9095" y1="16.8586" x2="69.9095" y2="141.303" gradientUnits="userSpaceOnUse">
        <stop stop-color="white"></stop>
        <stop offset="0.09" stop-color="#F7F7F7"></stop>
        <stop offset="0.22" stop-color="#E3E3E3"></stop>
        <stop offset="0.37" stop-color="#C1C1C1"></stop>
        <stop offset="0.55" stop-color="#929292"></stop>
        <stop offset="0.75" stop-color="#575757"></stop>
        <stop offset="0.96" stop-color="#0F0F0F"></stop>
        <stop offset="1"></stop>
      </linearGradient>
      <linearGradient id="paint5_linear_350_65723" x1="69.9001" y1="15.8411" x2="69.9001" y2="138.989" gradientUnits="userSpaceOnUse">
        <stop stop-color="white"></stop>
        <stop offset="0.09" stop-color="#F8F8F8"></stop>
        <stop offset="0.22" stop-color="#E5E5E5"></stop>
        <stop offset="0.37" stop-color="#C6C6C6"></stop>
        <stop offset="0.54" stop-color="#9A9A9A"></stop>
        <stop offset="0.72" stop-color="#636363"></stop>
        <stop offset="0.91" stop-color="#202020"></stop>
        <stop offset="1"></stop>
      </linearGradient>
      <linearGradient id="paint6_linear_350_65723" x1="69.8797" y1="14.8525" x2="69.8797" y2="136.825" gradientUnits="userSpaceOnUse">
        <stop stop-color="white"></stop>
        <stop offset="0.09" stop-color="#F8F8F8"></stop>
        <stop offset="0.22" stop-color="#E7E7E7"></stop>
        <stop offset="0.36" stop-color="#C9C9C9"></stop>
        <stop offset="0.52" stop-color="#A1A1A1"></stop>
        <stop offset="0.7" stop-color="#6D6D6D"></stop>
        <stop offset="0.88" stop-color="#2E2E2E"></stop>
        <stop offset="1"></stop>
      </linearGradient>
      <linearGradient id="paint7_linear_350_65723" x1="69.8705" y1="13.8922" x2="69.8705" y2="134.833" gradientUnits="userSpaceOnUse">
        <stop stop-color="white"></stop>
        <stop offset="0.09" stop-color="#F9F9F9"></stop>
        <stop offset="0.22" stop-color="#E8E8E8"></stop>
        <stop offset="0.36" stop-color="#CDCDCD"></stop>
        <stop offset="0.51" stop-color="#A7A7A7"></stop>
        <stop offset="0.68" stop-color="#767676"></stop>
        <stop offset="0.85" stop-color="#3B3B3B"></stop>
        <stop offset="1"></stop>
      </linearGradient>
      <linearGradient id="paint8_linear_350_65723" x1="69.8497" y1="12.9683" x2="69.8497" y2="133.021" gradientUnits="userSpaceOnUse">
        <stop stop-color="white"></stop>
        <stop offset="0.1" stop-color="#F9F9F9"></stop>
        <stop offset="0.22" stop-color="#E9E9E9"></stop>
        <stop offset="0.36" stop-color="#D0D0D0"></stop>
        <stop offset="0.51" stop-color="#ACACAC"></stop>
        <stop offset="0.66" stop-color="#7E7E7E"></stop>
        <stop offset="0.83" stop-color="#454545"></stop>
        <stop offset="0.99" stop-color="#040404"></stop>
        <stop offset="1"></stop>
      </linearGradient>
      <linearGradient id="paint9_linear_350_65723" x1="69.8397" y1="12.0654" x2="69.8397" y2="131.394" gradientUnits="userSpaceOnUse">
        <stop stop-color="white"></stop>
        <stop offset="0.1" stop-color="#F9F9F9"></stop>
        <stop offset="0.23" stop-color="#EBEBEB"></stop>
        <stop offset="0.36" stop-color="#D2D2D2"></stop>
        <stop offset="0.5" stop-color="#B0B0B0"></stop>
        <stop offset="0.65" stop-color="#858585"></stop>
        <stop offset="0.8" stop-color="#4F4F4F"></stop>
        <stop offset="0.96" stop-color="#111111"></stop>
        <stop offset="1"></stop>
      </linearGradient>
      <linearGradient id="paint10_linear_350_65723" x1="69.83" y1="11.1914" x2="69.83" y2="129.954" gradientUnits="userSpaceOnUse">
        <stop stop-color="white"></stop>
        <stop offset="0.11" stop-color="#FAFAFA"></stop>
        <stop offset="0.23" stop-color="#ECECEC"></stop>
        <stop offset="0.36" stop-color="#D5D5D5"></stop>
        <stop offset="0.5" stop-color="#B4B4B4"></stop>
        <stop offset="0.64" stop-color="#8B8B8B"></stop>
        <stop offset="0.79" stop-color="#585858"></stop>
        <stop offset="0.93" stop-color="#1D1D1D"></stop>
        <stop offset="1"></stop>
      </linearGradient>
      <linearGradient id="paint11_linear_350_65723" x1="69.8196" y1="10.3387" x2="69.8196" y2="128.7" gradientUnits="userSpaceOnUse">
        <stop stop-color="white"></stop>
        <stop offset="0.11" stop-color="#FAFAFA"></stop>
        <stop offset="0.24" stop-color="#EDEDED"></stop>
        <stop offset="0.37" stop-color="#D7D7D7"></stop>
        <stop offset="0.5" stop-color="#B8B8B8"></stop>
        <stop offset="0.64" stop-color="#909090"></stop>
        <stop offset="0.77" stop-color="#606060"></stop>
        <stop offset="0.91" stop-color="#282828"></stop>
        <stop offset="1"></stop>
      </linearGradient>
      <linearGradient id="paint12_linear_350_65723" x1="69.82" y1="9.50738" x2="69.82" y2="127.625" gradientUnits="userSpaceOnUse">
        <stop stop-color="white"></stop>
        <stop offset="0.12" stop-color="#FAFAFA"></stop>
        <stop offset="0.24" stop-color="#EEEEEE"></stop>
        <stop offset="0.37" stop-color="#D9D9D9"></stop>
        <stop offset="0.5" stop-color="#BBBBBB"></stop>
        <stop offset="0.63" stop-color="#959595"></stop>
        <stop offset="0.76" stop-color="#676767"></stop>
        <stop offset="0.89" stop-color="#313131"></stop>
        <stop offset="1"></stop>
      </linearGradient>
      <linearGradient id="paint13_linear_350_65723" x1="69.8102" y1="8.69092" x2="69.8102" y2="126.716" gradientUnits="userSpaceOnUse">
        <stop stop-color="white"></stop>
        <stop offset="0.13" stop-color="#FBFBFB"></stop>
        <stop offset="0.25" stop-color="#EFEFEF"></stop>
        <stop offset="0.38" stop-color="#DADADA"></stop>
        <stop offset="0.5" stop-color="#BEBEBE"></stop>
        <stop offset="0.63" stop-color="#9A9A9A"></stop>
        <stop offset="0.75" stop-color="#6E6E6E"></stop>
        <stop offset="0.88" stop-color="#3A3A3A"></stop>
        <stop offset="1"></stop>
      </linearGradient>
      <linearGradient id="paint14_linear_350_65723" x1="69.8199" y1="7.88113" x2="69.8199" y2="125.942" gradientUnits="userSpaceOnUse">
        <stop stop-color="white"></stop>
        <stop offset="0.13" stop-color="#FBFBFB"></stop>
        <stop offset="0.26" stop-color="#EFEFEF"></stop>
        <stop offset="0.38" stop-color="#DCDCDC"></stop>
        <stop offset="0.51" stop-color="#C1C1C1"></stop>
        <stop offset="0.63" stop-color="#9E9E9E"></stop>
        <stop offset="0.75" stop-color="#737373"></stop>
        <stop offset="0.87" stop-color="#414141"></stop>
        <stop offset="0.98" stop-color="#080808"></stop>
        <stop offset="1"></stop>
      </linearGradient>
      <linearGradient id="paint15_linear_350_65723" x1="69.8199" y1="7.07884" x2="69.8199" y2="125.311" gradientUnits="userSpaceOnUse">
        <stop stop-color="white"></stop>
        <stop offset="0.14" stop-color="#FBFBFB"></stop>
        <stop offset="0.27" stop-color="#F0F0F0"></stop>
        <stop offset="0.39" stop-color="#DDDDDD"></stop>
        <stop offset="0.51" stop-color="#C3C3C3"></stop>
        <stop offset="0.63" stop-color="#A2A2A2"></stop>
        <stop offset="0.74" stop-color="#797979"></stop>
        <stop offset="0.86" stop-color="#484848"></stop>
        <stop offset="0.97" stop-color="#111111"></stop>
        <stop offset="1"></stop>
      </linearGradient>
      <linearGradient id="paint16_linear_350_65723" x1="69.79" y1="6.27622" x2="69.79" y2="124.803" gradientUnits="userSpaceOnUse">
        <stop stop-color="white"></stop>
        <stop offset="0.15" stop-color="#FBFBFB"></stop>
        <stop offset="0.28" stop-color="#F1F1F1"></stop>
        <stop offset="0.4" stop-color="#DFDFDF"></stop>
        <stop offset="0.52" stop-color="#C6C6C6"></stop>
        <stop offset="0.63" stop-color="#A5A5A5"></stop>
        <stop offset="0.74" stop-color="#7E7E7E"></stop>
        <stop offset="0.85" stop-color="#4F4F4F"></stop>
        <stop offset="0.95" stop-color="#1A1A1A"></stop>
        <stop offset="1"></stop>
      </linearGradient>
      <linearGradient id="paint17_linear_350_65723" x1="69.7501" y1="5.48125" x2="69.7501" y2="124.445" gradientUnits="userSpaceOnUse">
        <stop stop-color="white"></stop>
        <stop offset="0.16" stop-color="#FBFBFB"></stop>
        <stop offset="0.29" stop-color="#F1F1F1"></stop>
        <stop offset="0.41" stop-color="#E0E0E0"></stop>
        <stop offset="0.52" stop-color="#C8C8C8"></stop>
        <stop offset="0.63" stop-color="#A9A9A9"></stop>
        <stop offset="0.74" stop-color="#828282"></stop>
        <stop offset="0.84" stop-color="#555555"></stop>
        <stop offset="0.94" stop-color="#222222"></stop>
        <stop offset="1"></stop>
      </linearGradient>
      <linearGradient id="paint18_linear_350_65723" x1="69.7695" y1="4.68579" x2="69.7695" y2="124.208" gradientUnits="userSpaceOnUse">
        <stop stop-color="white"></stop>
        <stop offset="0.17" stop-color="#FBFBFB"></stop>
        <stop offset="0.3" stop-color="#F2F2F2"></stop>
        <stop offset="0.42" stop-color="#E1E1E1"></stop>
        <stop offset="0.53" stop-color="#CACACA"></stop>
        <stop offset="0.64" stop-color="#ACACAC"></stop>
        <stop offset="0.74" stop-color="#878787"></stop>
        <stop offset="0.84" stop-color="#5B5B5B"></stop>
        <stop offset="0.93" stop-color="#292929"></stop>
        <stop offset="1"></stop>
      </linearGradient>
    </defs>
  </symbol>
    <symbol xmlns="http://www.w3.org/2000/svg" viewBox="0 0 24 24" id="minus">
    <path d="M6 12L18 12"  stroke-width="2" stroke-linecap="round" stroke-linejoin="round"></path>
  </symbol>
    <symbol  xmlns="http://www.w3.org/2000/svg" viewBox="0 0 24 24" id="auto">
    <path d="M3 3H21M3 21H21M8 17L9.6 12.6M9.6 12.6L11.5301 7.29221C11.6897 6.85338 12.3103 6.85338 12.4699 7.29222L14.4 12.6M9.6 12.6H14.4M14.4 12.6L16 17" stroke-width="2" stroke-linecap="round"></path>
  </symbol>
  <symbol  xmlns="http://www.w3.org/2000/svg" viewBox="0 0 24 24" id="cool">
    <path d="M11 22V17.85L7.75 21.05L6.35 19.65L11 15V13H9L4.35 17.65L2.95 16.25L6.15 13H2V11H6.15L2.95 7.75L4.35 6.35L9 11H11V9L6.35 4.35L7.75 2.95L11 6.15V2H13V6.15L16.25 2.95L17.65 4.35L13 9V11H15L19.65 6.35L21.05 7.75L17.85 11H22V13H17.85L21.05 16.25L19.65 17.65L15 13H13V15L17.65 19.65L16.25 21.05L13 17.85V22H11Z" ></path>
  </symbol>
  <symbol  xmlns="http://www.w3.org/2000/svg" viewBox="0 0 24 24" id="hot">
    <path d="M12 23C18.0751 23 23 18.0751 23 12C23 5.92487 18.0751 1 12 1C5.92487 1 1 5.92487 1 12C1 18.0751 5.92487 23 12 23Z"  stroke-width="2"></path>
    <path d="M11.6923 17C13.7315 17 16 15.3584 16 13.3333C16 10.4692 14.9186 9.75283 12.249 6.65452C12.1715 6.56458 12.0069 6.67119 12.0526 6.78075C12.9083 8.83155 12.7882 10.3447 11.6923 10.8889C10.5392 11.4614 9.74624 10.246 9.31336 9.75521C9.27179 9.7081 9.19813 9.71522 9.16403 9.76799C8.23497 11.2059 8 12.7363 8 13.3333C8 15.3584 9.6531 17 11.6923 17Z"  stroke-width="2"></path>
  </symbol>
    <symbol xmlns="http://www.w3.org/2000/svg" viewBox="0 0 24 24" id="arrow">
    <path d="M6 12H18M18 12L13 7M18 12L13 17" stroke-width="2" stroke-linecap="round" stroke-linejoin="round"></path>
  </symbol>
  <symbol xmlns="http://www.w3.org/2000/svg" viewBox="0 0 24 24" id="volume-less">
    <path fill-rule="evenodd" clip-rule="evenodd" d="M15.6402 4.90978C14.926 5.25674 14.0209 5.85164 12.7311 6.70205L12.5122 6.84641C12.4955 6.8574 12.4791 6.86824 12.4628 6.87895C12.0826 7.12974 11.8193 7.30343 11.5308 7.43078C11.2464 7.55627 10.9476 7.64593 10.6411 7.69768C10.3301 7.7502 10.0146 7.75013 9.55918 7.75004C9.53974 7.75004 9.52004 7.75003 9.50008 7.75003C8.05641 7.75003 7.56911 7.76631 7.1548 7.958C6.75445 8.14323 6.32804 8.54443 6.1188 8.93278C5.90052 9.33789 5.86045 9.75309 5.7834 11.0173C5.76225 11.3642 5.75 11.6968 5.75 12C5.75 12.3033 5.76225 12.6358 5.7834 12.9828C5.86045 14.247 5.90052 14.6622 6.1188 15.0673C6.32804 15.4556 6.75445 15.8568 7.1548 16.0421C7.56911 16.2338 8.05641 16.25 9.50008 16.25C9.52004 16.25 9.53973 16.25 9.55917 16.25C10.0146 16.2499 10.3301 16.2499 10.6411 16.3024C10.9476 16.3541 11.2464 16.4438 11.5308 16.5693C11.8193 16.6966 12.0826 16.8703 12.4628 17.1211C12.479 17.1318 12.4955 17.1427 12.5122 17.1537L12.7311 17.298C14.0209 18.1484 14.926 18.7433 15.6402 19.0903C16.3525 19.4363 16.7087 19.4502 16.9578 19.3651C17.0952 19.3183 17.2297 19.2498 17.3485 19.1664C17.5651 19.0141 17.7626 18.7195 17.9015 17.9482C18.041 17.1733 18.0924 16.1014 18.1635 14.5706C18.2156 13.451 18.25 12.5118 18.25 12C18.25 11.4883 18.2156 10.549 18.1635 9.42946C18.0924 7.89871 18.041 6.82677 17.9015 6.05188C17.7626 5.28052 17.5651 4.98595 17.3485 4.8337C17.2297 4.75023 17.0952 4.68181 16.9578 4.63492C16.7087 4.54989 16.3525 4.56376 15.6402 4.90978ZM14.9848 3.56055C15.8108 3.15928 16.6241 2.9361 17.4423 3.21531C17.7142 3.30809 17.9759 3.44128 18.2109 3.60646C18.917 4.10266 19.2159 4.88667 19.3778 5.78612C19.537 6.67048 19.5914 7.84243 19.6592 9.30232L19.6619 9.35983C19.7137 10.4748 19.75 11.448 19.75 12C19.75 12.552 19.7137 13.5253 19.6619 14.6402L19.6592 14.6977C19.5914 16.1576 19.537 17.3296 19.3778 18.2139C19.2159 19.1134 18.917 19.8974 18.2109 20.3936C17.9759 20.5588 17.7142 20.692 17.4423 20.7848C16.6241 21.064 15.8108 20.8408 14.9848 20.4395C14.1712 20.0443 13.1841 19.3934 11.9533 18.5819L11.6865 18.4059C11.2386 18.1106 11.0845 18.0119 10.9251 17.9416C10.7545 17.8663 10.5752 17.8125 10.3913 17.7814C10.2196 17.7524 10.0366 17.75 9.50008 17.75C9.44569 17.75 9.39203 17.7501 9.33907 17.7501C8.12215 17.7507 7.27659 17.7512 6.52496 17.4034C5.83016 17.082 5.16141 16.4527 4.79828 15.7788C4.40566 15.0501 4.35959 14.2881 4.29409 13.2045C4.29149 13.1615 4.28886 13.1181 4.28618 13.0741C4.26373 12.7058 4.25 12.3416 4.25 12C4.25 11.6585 4.26373 11.2943 4.28618 10.926C4.28886 10.882 4.29149 10.8385 4.29409 10.7955C4.35959 9.712 4.40566 8.94996 4.79828 8.22128C5.16141 7.54732 5.83016 6.9181 6.52496 6.59664C7.27659 6.24889 8.12215 6.24933 9.33906 6.24998C9.39203 6.25 9.44569 6.25003 9.50008 6.25003C10.0366 6.25003 10.2196 6.24762 10.3913 6.21862C10.5752 6.18757 10.7545 6.13377 10.9251 6.05848C11.0845 5.98815 11.2386 5.88945 11.6865 5.59411L11.9533 5.4182C13.1841 4.60662 14.1712 3.95576 14.9848 3.56055Z" ></path>
  </symbol>
  <symbol xmlns="http://www.w3.org/2000/svg" viewBox="0 0 24 24" id="volume-more">
    <path fill-rule="evenodd" clip-rule="evenodd" d="M12.1402 4.90978C11.426 5.25674 10.5209 5.85164 9.2311 6.70205L9.01216 6.84641C8.9955 6.8574 8.97905 6.86824 8.96283 6.87895C8.58263 7.12974 8.31931 7.30343 8.03077 7.43078C7.74641 7.55627 7.44756 7.64593 7.14108 7.69768C6.83009 7.7502 6.51464 7.75013 6.05918 7.75004C6.03974 7.75004 6.02004 7.75003 6.00008 7.75003C4.55641 7.75003 4.06911 7.76631 3.6548 7.958C3.25445 8.14323 2.82804 8.54443 2.6188 8.93278C2.40052 9.33789 2.36045 9.75309 2.2834 11.0173C2.26225 11.3642 2.25 11.6968 2.25 12C2.25 12.3033 2.26225 12.6358 2.2834 12.9828C2.36045 14.247 2.40052 14.6622 2.6188 15.0673C2.82804 15.4556 3.25445 15.8568 3.6548 16.0421C4.06911 16.2338 4.55641 16.25 6.00008 16.25C6.02004 16.25 6.03973 16.25 6.05917 16.25C6.51464 16.2499 6.83009 16.2499 7.14108 16.3024C7.44756 16.3541 7.74641 16.4438 8.03077 16.5693C8.31931 16.6966 8.58263 16.8703 8.96282 17.1211C8.97905 17.1318 8.99549 17.1427 9.01216 17.1537L9.2311 17.298C10.5209 18.1484 11.426 18.7433 12.1402 19.0903C12.8525 19.4363 13.2087 19.4502 13.4578 19.3651C13.5952 19.3183 13.7297 19.2498 13.8485 19.1664C14.0651 19.0141 14.2626 18.7195 14.4015 17.9482C14.541 17.1733 14.5924 16.1014 14.6635 14.5706C14.7156 13.451 14.75 12.5118 14.75 12C14.75 11.4883 14.7156 10.549 14.6635 9.42946C14.5924 7.89871 14.541 6.82677 14.4015 6.05188C14.2626 5.28052 14.0651 4.98595 13.8485 4.8337C13.7297 4.75023 13.5952 4.68181 13.4578 4.63492C13.2087 4.54989 12.8525 4.56376 12.1402 4.90978ZM11.4848 3.56055C12.3108 3.15928 13.1241 2.9361 13.9423 3.21531C14.2142 3.30809 14.4759 3.44128 14.7109 3.60646C15.417 4.10266 15.7159 4.88667 15.8778 5.78612C16.037 6.67048 16.0914 7.84243 16.1592 9.30232L16.1619 9.35983C16.2137 10.4748 16.25 11.448 16.25 12C16.25 12.552 16.2137 13.5253 16.1619 14.6402L16.1592 14.6977C16.0914 16.1576 16.037 17.3296 15.8778 18.2139C15.7159 19.1134 15.417 19.8974 14.7109 20.3936C14.4759 20.5588 14.2142 20.692 13.9423 20.7848C13.1241 21.064 12.3108 20.8408 11.4848 20.4395C10.6712 20.0443 9.68413 19.3934 8.45327 18.5819L8.18647 18.4059C7.73856 18.1106 7.58448 18.0119 7.42513 17.9416C7.25452 17.8663 7.0752 17.8125 6.89132 17.7814C6.71956 17.7524 6.5366 17.75 6.00008 17.75C5.94569 17.75 5.89203 17.7501 5.83907 17.7501C4.62215 17.7507 3.77659 17.7512 3.02496 17.4034C2.33016 17.082 1.66141 16.4527 1.29828 15.7788C0.905663 15.0501 0.859593 14.2881 0.794087 13.2045C0.791489 13.1615 0.788861 13.1181 0.786179 13.0741C0.763733 12.7058 0.75 12.3416 0.75 12C0.75 11.6585 0.763733 11.2943 0.786179 10.926C0.788861 10.882 0.791489 10.8385 0.794087 10.7955C0.859593 9.712 0.905663 8.94996 1.29828 8.22128C1.66141 7.54732 2.33016 6.9181 3.02496 6.59664C3.77659 6.24889 4.62215 6.24933 5.83906 6.24998C5.89203 6.25 5.94569 6.25003 6.00008 6.25003C6.5366 6.25003 6.71956 6.24762 6.89132 6.21862C7.0752 6.18757 7.25452 6.13377 7.42513 6.05848C7.58448 5.98815 7.73856 5.88945 8.18647 5.59411L8.45328 5.4182C9.68414 4.60662 10.6712 3.95576 11.4848 3.56055ZM19.5199 5.42408C19.8381 5.1589 20.311 5.2019 20.5762 5.52011L20 6.00024C20.5762 5.52011 20.5762 5.52011 20.5762 5.52011L20.5773 5.52148L20.5786 5.52303L20.5816 5.52664L20.5891 5.53591C20.5948 5.543 20.6018 5.55194 20.6102 5.56272C20.6269 5.5843 20.6486 5.6133 20.6748 5.64986C20.727 5.723 20.7966 5.8264 20.8775 5.96125C21.0394 6.23106 21.2462 6.62623 21.45 7.15601C21.8582 8.21738 22.25 9.80868 22.25 12.0002C22.25 14.1918 21.8582 15.7831 21.45 16.8445C21.2462 17.3743 21.0394 17.7694 20.8775 18.0392C20.7966 18.1741 20.727 18.2775 20.6748 18.3506C20.6486 18.3872 20.6269 18.4162 20.6102 18.4378C20.6052 18.4442 20.6007 18.45 20.5966 18.4551C20.5939 18.4586 20.5914 18.4617 20.5891 18.4646L20.5816 18.4739L20.5786 18.4775L20.5773 18.479C20.5773 18.479 20.5762 18.4804 20 18.0002L20.5762 18.4804C20.311 18.7986 19.8381 18.8416 19.5199 18.5764C19.2032 18.3125 19.1591 17.8429 19.42 17.5247M19.42 17.5247C19.42 17.5247 19.4218 17.5224 19.4235 17.5202C19.4288 17.5134 19.4393 17.4996 19.4542 17.4788C19.4839 17.4371 19.5315 17.367 19.5913 17.2675C19.7106 17.0686 19.8788 16.7512 20.05 16.306C20.3918 15.4174 20.75 14.0087 20.75 12.0002C20.75 9.99181 20.3918 8.58311 20.05 7.69448C19.8788 7.24926 19.7106 6.93192 19.5913 6.73299C19.5315 6.63347 19.4839 6.56343 19.4542 6.52172C19.4393 6.50086 19.4288 6.48709 19.4235 6.48024C19.4218 6.47803 19.42 6.47578 19.42 6.47578L19.4235 6.48024L19.422 6.47812L19.42 6.47578C19.1591 6.15763 19.2032 5.68797 19.5199 5.42408M17.6358 8.34463C17.9979 8.14347 18.4545 8.27392 18.6556 8.63601L18.0276 8.9849C18.6556 8.63602 18.6556 8.63601 18.6556 8.63601L18.6563 8.63732L18.6571 8.63872L18.6588 8.64176L18.6626 8.64888L18.6723 8.66723C18.6795 8.6813 18.6884 8.69906 18.6986 8.72057C18.7191 8.76359 18.7451 8.82159 18.7745 8.89514C18.8333 9.0423 18.9059 9.25124 18.9765 9.52646C19.1178 10.0774 19.25 10.8901 19.25 12.0002C19.25 13.1104 19.1178 13.9231 18.9765 14.474C18.9059 14.7492 18.8333 14.9582 18.7745 15.1053C18.7451 15.1789 18.7191 15.2369 18.6986 15.2799C18.6884 15.3014 18.6795 15.3192 18.6723 15.3333L18.6626 15.3516L18.6588 15.3587L18.6571 15.3618L18.6563 15.3632C18.6563 15.3632 18.6556 15.3645 18.0276 15.0156L18.6556 15.3645C18.4545 15.7266 17.9979 15.857 17.6358 15.6559C17.2768 15.4564 17.1455 15.0058 17.3393 14.6453L17.3443 14.635C17.3512 14.6206 17.3643 14.5919 17.3818 14.5483C17.4167 14.4611 17.4691 14.3137 17.5235 14.1015C17.6322 13.6774 17.75 12.9901 17.75 12.0002C17.75 11.0104 17.6322 10.3231 17.5235 9.89902C17.4691 9.68675 17.4167 9.53944 17.3818 9.45222C17.3643 9.40858 17.3512 9.37986 17.3443 9.36547L17.3393 9.35523C17.1455 8.99465 17.2768 8.54408 17.6358 8.34463Z" ></path>
  </symbol>
   <symbol version="1.1" id="cotton" xmlns="http://www.w3.org/2000/svg" xmlns:xlink="http://www.w3.org/1999/xlink" xml:space="preserve" viewBox="0 0 512 512">
    <g>
      <path d="M431.36,136.172v-0.256l-0.504-1.575c-6.59-20.635-18.224-40.572-37.214-56.102
		c-18.964-15.551-44.952-26.432-79.204-30.204l-11.426-1.264l-0.346,11.488c-0.78,25.526-21.436,45.864-46.666,45.851
		c-12.662-0.007-24.04-5.057-32.489-13.347c-8.435-8.297-13.782-19.723-14.176-32.504l-0.352-11.488l-11.42,1.264
		c-34.251,3.772-60.24,14.652-79.204,30.204c-18.991,15.536-30.624,35.481-37.201,56.116l-0.048,0.152l-0.028,0.103l-0.049,0.138
		L0,424.814l90.94,26.942l35.792-118.2v131.672h258.549v-10.611V333.584l35.772,118.173L512,424.814L431.36,136.172z
		 M371.907,216.184c-0.573-1.907-2.459-3.095-4.422-2.805c-1.968,0.29-3.426,1.976-3.426,3.965v226.661H147.954V217.331
		c0-1.99-1.457-3.682-3.427-3.973c-1.962-0.29-3.848,0.906-4.421,2.805L76.744,425.415l-50.686-15.012l75.321-269.602
		c5.658-17.623,15.081-33.554,30.424-46.14c13.596-11.115,32.124-19.806,57.74-24.068c2.777,13.686,9.54,25.934,19.088,35.308
		c12.178,11.992,28.959,19.433,47.369,19.433c32.904-0.035,60.144-23.578,66.465-54.742c25.615,4.262,44.137,12.954,57.732,24.068
		c15.24,12.504,24.635,28.31,30.313,45.788l0.084,0.262l75.348,269.692l-50.686,15.012L371.907,216.184z"></path>
    </g>
  </symbol>
  <symbol xmlns="http://www.w3.org/2000/svg" stroke-width="3" fill="none" viewBox="0 0 64 64" id="sport">
    <circle cx="33.69" cy="32" r="24.99" stroke-linecap="round"></circle>
    <polygon points="33.43 20.18 22.84 27.88 26.89 40.32 39.98 40.32 44.02 27.88 33.43 20.18" stroke-linecap="round"></polygon>
    <polyline points="40.41 7.92 33.43 13.48 26.59 8.04" stroke-linecap="round"></polyline>
    <line x1="33.43" y1="20.18" x2="33.43" y2="13.48" stroke-linecap="round"></line>
    <polyline points="58.68 32 50.6 25.92 53.78 17.14" stroke-linecap="round"></polyline>
    <polyline points="40.72 55.99 44.02 46.39 54.05 46.49" stroke-linecap="round"></polyline>
    <polyline points="25.61 55.65 22.55 46.39 13.26 46.39" stroke-linecap="round"></polyline>
    <polyline points="8.7 32 15.99 25.97 13.16 17.76" stroke-linecap="round"></polyline>
    <line x1="22.84" y1="27.88" x2="15.99" y2="25.97" stroke-linecap="round"></line>
    <line x1="26.89" y1="40.32" x2="22.55" y2="46.39" stroke-linecap="round"></line>
    <line x1="39.98" y1="40.32" x2="44.02" y2="46.39" stroke-linecap="round"></line>
    <line x1="44.02" y1="27.89" x2="50.6" y2="25.92" stroke-linecap="round"></line>
  </symbol>
  <symbol version="1.1" id="shoes" xmlns="http://www.w3.org/2000/svg" xmlns:xlink="http://www.w3.org/1999/xlink" xml:space="preserve" viewBox="0 0 512 512">
    <g>
      <g>
        <path d="M97.174,195.039c-28.807,0-52.244,23.437-52.244,52.245c0,28.808,23.437,52.245,52.244,52.245
			c28.808,0,52.246-23.437,52.246-52.245C149.42,218.476,125.982,195.039,97.174,195.039z M97.174,278.631
			c-17.285,0-31.346-14.062-31.346-31.347c0-17.285,14.061-31.347,31.346-31.347c17.286,0,31.348,14.062,31.348,31.347
			C128.522,264.569,114.46,278.631,97.174,278.631z"></path>
      </g>
    </g>
    <g>
      <g>
        <path d="M486.633,285.446c-15.381-11.405-35.923-16.252-61.93-22.389c-5.661-1.335-11.516-2.717-17.609-4.237
			c-0.001,0-0.003-0.001-0.004-0.001c-35.362-8.827-65.669-19.06-91.131-30.842c1.095-5.039-1.672-10.233-6.655-12.032
			c-4.173-1.508-8.671-0.186-11.421,2.97c-7.685-4.187-14.832-8.552-21.456-13.098c1.375-4.471-0.385-9.471-4.569-12.002
			c-3.514-2.13-7.78-1.93-11.029,0.141c-6.066-5.13-11.553-10.469-16.463-16.022c2.32-4.102,1.642-9.4-1.952-12.762
			c-2.704-2.53-6.392-3.336-9.731-2.485c-4.314-6.566-7.941-13.403-10.883-20.521c2.922-2.695,4.174-6.94,2.845-10.959
			c-1.317-3.982-4.798-6.628-8.703-7.089c-1.958-8.093-3.16-16.508-3.602-25.267c-0.281-5.559-4.869-9.922-10.435-9.922H10.449
			C4.678,88.929,0,93.608,0,99.378v313.245c0,5.77,4.678,10.449,10.449,10.449h491.102c5.77,0,10.449-4.679,10.449-10.449v-65.482
			C512,317.884,503.939,298.279,486.633,285.446z M406.035,280.082c4.774,1.168,9.384,2.257,13.869,3.315
			c44.992,10.615,67.476,15.919,70.772,53.295H377.245c0.517-6.263,1.502-12.207,2.96-17.745
			C386.566,294.777,400.149,283.83,406.035,280.082z M20.898,109.827h171.376c0.762,6.802,1.96,13.432,3.575,19.896l-9.018,2.981
			c-2.561-1.633-5.593-2.592-8.849-2.592c-9.11,0-16.523,7.412-16.523,16.523c0,9.112,7.412,16.524,16.523,16.524
			c7.027,0,13.027-4.417,15.411-10.614l8.968-2.964c3.912,9.516,8.856,18.61,14.821,27.268l-5.708,6.101
			c-0.366-0.024-0.728-0.056-1.1-0.056c-9.11,0-16.523,7.413-16.523,16.524s7.412,16.523,16.523,16.523s16.523-7.412,16.523-16.523
			c0-0.745-0.067-1.472-0.162-2.192l3.575-3.82c5.642,6.237,11.89,12.212,18.744,17.916l-5.889,9.729
			c-8.012,1.136-14.2,8.021-14.2,16.341c0,9.112,7.413,16.524,16.523,16.524s16.523-7.413,16.523-16.524
			c0-1.937-0.353-3.79-0.969-5.519l4.803-7.935c7.47,5.082,15.53,9.939,24.206,14.578l-4.446,12.314
			c-6.417,2.271-11.034,8.381-11.034,15.566c0,9.112,7.412,16.523,16.523,16.523s16.523-7.413,16.523-16.523
			c0-3.096-0.871-5.984-2.358-8.464l3.65-10.108c21.006,9.574,45.09,18.148,72.568,25.839c-7.99,8.46-16.557,21.268-21.48,39.965
			c-1.903,7.231-3.146,14.956-3.717,23.066l-335.382-0.002V109.827z M491.102,402.174H20.898v-44.584h470.204V402.174z"></path>
      </g>
    </g>
    <g>
      <g>
        <path d="M195.353,368.817h-4.678c-5.77,0-10.449,4.678-10.449,10.449c0,5.77,4.679,10.449,10.449,10.449h4.678
			c5.77,0,10.449-4.679,10.449-10.449C205.802,373.495,201.123,368.817,195.353,368.817z"></path>
      </g>
    </g>
    <g>
      <g>
        <path d="M156.872,368.817H55.38c-5.77,0-10.449,4.678-10.449,10.449c0,5.77,4.679,10.449,10.449,10.449h101.492
			c5.77,0,10.449-4.679,10.449-10.449C167.321,373.495,162.642,368.817,156.872,368.817z"></path>
      </g>
    </g>
  </symbol>
  <symbol version="1.1" id="hand-wash" xmlns="http://www.w3.org/2000/svg" xmlns:xlink="http://www.w3.org/1999/xlink" xml:space="preserve" viewBox="0 0 200.563 200.563">
    <g>
      <path d="M109.612,76.633c-2.732-2.733-7.165-2.733-9.899,0l-45.425,45.426c-2.733,2.734-2.733,7.166,0.001,9.899
		c1.366,1.367,3.158,2.05,4.949,2.05s3.583-0.684,4.95-2.05l45.425-45.426C112.346,83.799,112.346,79.367,109.612,76.633z"></path>
      <path d="M81.546,137.485c1.791,0,3.583-0.684,4.95-2.05l40.844-40.844c2.733-2.734,2.733-7.166,0-9.899
		c-2.734-2.733-7.166-2.733-9.9,0l-40.844,40.844c-2.733,2.734-2.733,7.166,0,9.899C77.963,136.802,79.755,137.485,81.546,137.485z"></path>
      <path d="M50.811,109.65c1.367,1.367,3.159,2.05,4.95,2.05s3.583-0.684,4.95-2.05l40.844-40.844c0.194-0.194,0.371-0.399,0.538-0.61
		l2.39,0.061c3.85,0.103,7.078-2.952,7.178-6.818c0.099-3.865-2.953-7.078-6.818-7.177l-29.238-0.751
		c-4.496-0.116-8.496-2.503-10.826-6.086l30.972-7.704c0.458-0.114,0.903-0.273,1.328-0.477l49.793-23.793l27.152,27.153
		c-17.801,25.452-37.92,49.446-59.867,71.393l-8.492,8.492c-2.733,2.733-2.733,7.166,0,9.899c1.367,1.367,3.159,2.05,4.95,2.05
		s3.583-0.684,4.95-2.05l8.492-8.492c23.925-23.925,45.735-50.224,64.825-78.165c1.898-2.78,1.55-6.518-0.83-8.898L153.27,2.05
		c-2.1-2.098-5.293-2.645-7.968-1.366l-53.62,25.622l-37.61,9.354c-3.404,0.847-5.655,4.082-5.268,7.568
		c1.502,13.492,12.869,23.929,26.44,24.277l7.615,0.196L50.811,99.75C48.077,102.484,48.077,106.917,50.811,109.65z"></path>
      <path d="M193.656,59.618c-3.826-0.48-7.336,2.234-7.82,6.07l-9.79,77.709H24.517l-9.79-77.709c-0.484-3.836-3.991-6.551-7.82-6.07
		c-3.836,0.483-6.554,3.984-6.07,7.82l13.826,109.748c1.68,13.327,13.075,23.377,26.508,23.377h118.223
		c13.433,0,24.828-10.05,26.508-23.377l13.826-109.748C200.21,63.602,197.492,60.101,193.656,59.618z M159.393,186.563H41.17
		c-6.394,0-11.818-4.784-12.617-11.127l-2.272-18.04h148.002l-2.272,18.04C171.211,181.779,165.786,186.563,159.393,186.563z"></path>
    </g>
  </symbol>
  <symbol fill="none" xmlns="http://www.w3.org/2000/svg" viewBox="0 0 24 24" id="quick-wash">
    <path d="M12 7V12L14.5 10.5M21 12C21 16.9706 16.9706 21 12 21C7.02944 21 3 16.9706 3 12C3 7.02944 7.02944 3 12 3C16.9706 3 21 7.02944 21 12Z"  stroke-width="2" stroke-linecap="round" stroke-linejoin="round"></path>
  </symbol>
  <symbol xmlns="http://www.w3.org/2000/svg" xmlns:xlink="http://www.w3.org/1999/xlink" version="1.1" viewBox="0 0 24 24" id="soft-wash">
    <path d="M3,13A9,9 0 0,0 12,22A9,9 0 0,0 3,13M12,22A9,9 0 0,0 21,13A9,9 0 0,0 12,22M18,3V8A6,6 0 0,1 12,14A6,6 0 0,1 6,8V3C6.74,3 7.47,3.12 8.16,3.39C8.71,3.62 9.2,3.96 9.61,4.39L12,2L14.39,4.39C14.8,3.96 15.29,3.62 15.84,3.39C16.53,3.12 17.26,3 18,3Z"></path>
  </symbol>
</svg>

<svg class="icon">
  <use xlink:href="#plus"></use>
</svg><svg class="icon">
  <use xlink:href="#rooms"></use>
</svg><svg class="icon">
  <use xlink:href="#home"></use>
</svg><svg class="icon">
  <use xlink:href="#devices"></use>
</svg><svg class="icon">
  <use xlink:href="#settings"></use>
</svg><svg class="icon">
  <use xlink:href="#lamp-light"></use>
</svg><svg class="icon">
  <use xlink:href="#minus"></use>
</svg><svg class="icon">
  <use xlink:href="#auto"></use>
</svg><svg class="icon">
  <use xlink:href="#cool"></use>
</svg><svg class="icon">
  <use xlink:href="#hot"></use>
</svg><svg class="icon">
  <use xlink:href="#arrow"></use>
</svg><svg class="icon">
  <use xlink:href="#volume-less"></use>
</svg><svg class="icon">
  <use xlink:href="#volume-more"></use>
</svg><svg class="icon">
  <use xlink:href="#cotton"></use>
</svg><svg class="icon">
  <use xlink:href="#sport"></use>
</svg><svg class="icon">
  <use xlink:href="#shoes"></use>
</svg><svg class="icon">
  <use xlink:href="#hand-wash"></use>
</svg><svg class="icon">
  <use xlink:href="#quick-wash"></use>
</svg><svg class="icon">
  <use xlink:href="#soft-wash"></use>
</svg>