<svg width="0" height="0" class="hidden">
  <symbol xmlns="http://www.w3.org/2000/svg" viewBox="0 0 24 24" id="plus">
    <path d="M4 12H20M12 4V20" stroke-width="2" stroke-linecap="round" stroke-linejoin="round"></path>
  <symbol version="1.1" xmlns="http://www.w3.org/2000/svg" xmlns:xlink="http://www.w3.org/1999/xlink" viewBox="0 -0.5 21 21" id="home">
    <defs></defs>
    <g id="Page-1" stroke="none" stroke-width="1" fill-rule="evenodd">
      <g id="Dribbble-Light-Preview" transform="translate(-419.000000, -720.000000)" >
        <g id="icons" transform="translate(56.000000, 160.000000)">
          <path d="M379.79996,578 L376.649968,578 L376.649968,574 L370.349983,574 L370.349983,578 L367.19999,578 L367.19999,568.813 L373.489475,562.823 L379.79996,568.832 L379.79996,578 Z M381.899955,568.004 L381.899955,568 L381.899955,568 L373.502075,560 L363,569.992 L364.481546,571.406 L365.099995,570.813 L365.099995,580 L372.449978,580 L372.449978,576 L374.549973,576 L374.549973,580 L381.899955,580 L381.899955,579.997 L381.899955,570.832 L382.514204,571.416 L384.001,570.002 L381.899955,568.004 Z" id="home-[#1391]"></path>
        </g>
      </g>
    </g>
  </symbol>
    <symbol fill="none" xmlns="http://www.w3.org/2000/svg" viewBox="0 0 15 15" id="rooms">
    <path d="M13.5 5.5H1.5M13.5 5.5C14.0523 5.5 14.5 5.05228 14.5 4.5V2.5C14.5 1.94772 14.0523 1.5 13.5 1.5H1.5C0.947715 1.5 0.5 1.94772 0.5 2.5V4.5C0.5 5.05228 0.947716 5.5 1.5 5.5M13.5 5.5C14.0523 5.5 14.5 5.94772 14.5 6.5V8.5C14.5 9.05228 14.0523 9.5 13.5 9.5M1.5 5.5C0.947716 5.5 0.5 5.94772 0.5 6.5V8.5C0.5 9.05228 0.947716 9.5 1.5 9.5M13.5 9.5H1.5M13.5 9.5C14.0523 9.5 14.5 9.94772 14.5 10.5V12.5C14.5 13.0523 14.0523 13.5 13.5 13.5H1.5C0.947716 13.5 0.5 13.0523 0.5 12.5V10.5C0.5 9.94772 0.947716 9.5 1.5 9.5M2 3.5H5M2 7.5H5M2 11.5H5" ></path>
  </symbol>
    <symbol version="1.1" id="devices" xmlns="http://www.w3.org/2000/svg" xmlns:xlink="http://www.w3.org/1999/xlink" xml:space="preserve" viewBox="0 0 512 512">
    <g>
      <path d="M485.234,116.625H261.906l69.719-69.719c1.75-1.75,1.75-4.563,0-6.313l-17.422-17.438
		c-1.734-1.75-4.563-1.75-6.297,0l-89.688,89.688l-89.656-89.688c-1.75-1.75-4.563-1.75-6.313,0l-17.438,17.438
		c-1.75,1.75-1.75,4.563,0,6.313l69.75,69.719H26.766c-14.781,0-26.766,12-26.766,26.781v319.969
		c0,14.781,11.984,26.781,26.766,26.781h458.469c14.781,0,26.766-12,26.766-26.781V143.406
		C512,128.625,500.016,116.625,485.234,116.625z M383.594,421.188c0,8.531-6.906,15.438-15.422,15.438H66.844
		c-8.531,0-15.438-6.906-15.438-15.438V191.875c0-8.531,6.906-15.438,15.438-15.438h301.328c8.516,0,15.422,6.906,15.422,15.438
		V421.188z M473.188,333.813h-45.125v-45.125h45.125V333.813z M449.047,234.156c-13.906,0-25.172-11.281-25.172-25.188
		s11.266-25.188,25.172-25.188s25.172,11.281,25.172,25.188S462.953,234.156,449.047,234.156z"></path>
    </g>
  </symbol>
  <symbol version="1.1" id="settings" sodipodiDocname="settings2.svg" inkscapeVersion="1.2.2 (1:1.2.2+202212051550+b0a8486541)" xmlnsInkscape="http://www.inkscape.org/namespaces/inkscape" xmlnsSodipodi="http://sodipodi.sourceforge.net/DTD/sodipodi-0.dtd" xmlns="http://www.w3.org/2000/svg" xmlnsSvg="http://www.w3.org/2000/svg" viewBox="0 0 600 600">
    <defs id="defs9728"></defs>
    <sodipodi:namedview id="namedview9726" pagecolor="#ffffff" bordercolor="#666666" borderopacity="1.0" inkscapeShowpageshadow="2" inkscapePageopacity="0.0" inkscapePagecheckerboard="0" inkscapeDeskcolor="#d1d1d1" showgrid="true" inkscapeZoom="0.59480855" inkscapeCx="44.55215" inkscapeCy="332.03961" inkscapeWindowWidth="1920" inkscapeWindowHeight="1009" inkscapeWindowX="0" inkscapeWindowY="1080" inkscapeWindowMaximized="1" inkscapeCurrentLayer="svg9724" showguides="true">
      <inkscape:grid type="xygrid" id="grid9972" originx="0" originy="0"></inkscape:grid>
      <sodipodi:guide position="40,400" orientation="0,-1" id="guide292" inkscapeLocked="false"></sodipodi:guide>
      <sodipodi:guide position="90,200" orientation="0,-1" id="guide294" inkscapeLocked="false"></sodipodi:guide>
      <sodipodi:guide position="230,500" orientation="0,-1" id="guide296" inkscapeLocked="false"></sodipodi:guide>
      <sodipodi:guide position="210,300" orientation="0,-1" id="guide298" inkscapeLocked="false"></sodipodi:guide>
      <sodipodi:guide position="230,100" orientation="0,-1" id="guide300" inkscapeLocked="false"></sodipodi:guide>
    </sodipodi:namedview>
    <g id="g10449" transform="matrix(0.95173205,0,0,0.95115787,13.901174,12.168794)">
      <path id="path356" d="M 447.70881 -12.781343 A 42.041451 42.041451 0 0 0 405.66786 29.260344 L 405.66786 50.301721 L 27.434765 50.301721 A 42.041302 42.041302 0 0 0 -14.606185 92.341354 A 42.041302 42.041302 0 0 0 27.434765 134.38304 L 405.66786 134.38304 L 405.66786 155.44906 A 42.041451 42.041451 0 0 0 447.70881 197.49075 A 42.041451 42.041451 0 0 0 489.74976 155.44906 L 489.74976 134.38304 L 573.78036 134.38304 A 42.041302 42.041302 0 0 0 615.82336 92.341354 A 42.041302 42.041302 0 0 0 573.78036 50.301721 L 489.74976 50.301721 L 489.74976 29.260344 A 42.041451 42.041451 0 0 0 447.70881 -12.781343 z M 143.0012 197.48869 A 42.041451 42.041451 0 0 0 100.9582 239.53038 L 100.9582 260.5697 L 27.447078 260.5697 A 42.041302 42.041302 0 0 0 -14.593872 302.61139 A 42.041302 42.041302 0 0 0 27.447078 344.65308 L 100.9582 344.65308 L 100.9582 365.7191 A 42.041451 42.041451 0 0 0 143.0012 407.76078 A 42.041451 42.041451 0 0 0 185.04215 365.7191 L 185.04215 344.65308 L 573.79472 344.65308 A 42.041302 42.041302 0 0 0 615.83567 302.61139 A 42.041302 42.041302 0 0 0 573.79472 260.5697 L 185.04215 260.5697 L 185.04215 239.53038 A 42.041451 42.041451 0 0 0 143.0012 197.48869 z M 279.59427 407.76078 A 42.041451 42.041451 0 0 0 237.55332 449.80042 L 237.55332 470.83974 L 27.447078 470.83974 A 42.041302 42.041302 0 0 0 -14.593872 512.88143 A 42.041302 42.041302 0 0 0 27.447078 554.92106 L 237.55332 554.92106 L 237.55332 575.98913 A 42.041451 42.041451 0 0 0 279.59427 618.02877 A 42.041451 42.041451 0 0 0 321.63522 575.98913 L 321.63522 554.92106 L 573.79472 554.92106 A 42.041302 42.041302 0 0 0 615.83567 512.88143 A 42.041302 42.041302 0 0 0 573.79472 470.83974 L 321.63522 470.83974 L 321.63522 449.80042 A 42.041451 42.041451 0 0 0 279.59427 407.76078 z "></path>
    </g>
  </symbol>
</svg>

<svg class="icon">
  <use xlink:href="#plus"></use>
</svg><svg class="icon">
  <use xlink:href="#rooms"></use>
</svg><svg class="icon">
  <use xlink:href="#home"></use>
</svg><svg class="icon">
  <use xlink:href="#devices"></use>
</svg><svg class="icon">
  <use xlink:href="#settings"></use>
</svg>